<?xml version="1.0" encoding="UTF-8"?>
<!DOCTYPE svg PUBLIC "-//W3C//DTD SVG 1.1//EN" "http://www.w3.org/Graphics/SVG/1.1/DTD/svg11.dtd">
<svg xmlns="http://www.w3.org/2000/svg" version="1.1" width="200px" height="200px" style="shape-rendering:geometricPrecision; text-rendering:geometricPrecision; image-rendering:optimizeQuality; fill-rule:evenodd; clip-rule:evenodd" xmlns:xlink="http://www.w3.org/1999/xlink">
<g><path style="opacity:1" fill="#fdfdfd" d="M -0.5,-0.5 C 66.1667,-0.5 132.833,-0.5 199.5,-0.5C 199.5,66.1667 199.5,132.833 199.5,199.5C 132.833,199.5 66.1667,199.5 -0.5,199.5C -0.5,132.833 -0.5,66.1667 -0.5,-0.5 Z"/></g>
<g><path style="opacity:1" fill="#eeeeee" d="M 109.5,4.5 C 132.008,8.75149 151.342,18.7515 167.5,34.5C 160.96,31.3976 154.294,28.5643 147.5,26C 135.172,18.0089 122.505,10.8422 109.5,4.5 Z"/></g>
<g><path style="opacity:1" fill="#71716f" d="M 57.5,14.5 C 59.3911,15.5361 61.2245,15.5361 63,14.5C 76.0805,22.657 89.2472,30.8237 102.5,39C 106.346,40.6322 110.346,41.9656 114.5,43C 114.381,44.1448 114.048,45.3115 113.5,46.5C 110.833,47.1667 109.167,48.8333 108.5,51.5C 107.295,50.3281 107.295,48.9948 108.5,47.5C 90.7031,37.7672 73.0364,27.7672 55.5,17.5C 53.2383,18.4669 50.905,19.1336 48.5,19.5C 51.0078,17.0764 54.0078,15.4097 57.5,14.5 Z"/></g>
<g><path style="opacity:1" fill="#939391" d="M 71.5,8.5 C 75.1629,8.95178 78.8296,9.45178 82.5,10C 98.7069,20.5583 115.374,30.225 132.5,39C 134.063,39.7589 135.063,40.9256 135.5,42.5C 131.649,45.1608 127.316,46.1608 122.5,45.5C 123.398,44.8423 124.398,44.1757 125.5,43.5C 109.073,34.021 92.7396,24.3543 76.5,14.5C 72.3655,12.5971 68.0322,11.5971 63.5,11.5C 65.8478,9.90277 68.5145,8.90277 71.5,8.5 Z"/></g>
<g><path style="opacity:1" fill="#a4a4a3" d="M 79.5,6.5 C 82.5184,6.33537 85.5184,6.50204 88.5,7C 107.407,17.5693 126.073,28.5693 144.5,40C 142.618,40.1981 140.952,40.6981 139.5,41.5C 138.167,41.8333 136.833,42.1667 135.5,42.5C 135.063,40.9256 134.063,39.7589 132.5,39C 115.374,30.225 98.7069,20.5583 82.5,10C 78.8296,9.45178 75.1629,8.95178 71.5,8.5C 73.9608,7.46899 76.6275,6.80233 79.5,6.5 Z"/></g>
<g><path style="opacity:1" fill="#d8d8d8" d="M 103.5,4.5 C 105.5,4.5 107.5,4.5 109.5,4.5C 122.505,10.8422 135.172,18.0089 147.5,26C 154.294,28.5643 160.96,31.3976 167.5,34.5C 171.592,38.2577 174.926,42.591 177.5,47.5C 163.909,40.6877 150.243,33.1877 136.5,25C 132.785,20.9631 128.452,17.6297 123.5,15C 116.588,11.7132 109.921,8.21323 103.5,4.5 Z"/></g>
<g><path style="opacity:1" fill="#cbcbca" d="M 84.5,5.5 C 90.6446,4.50984 96.9779,4.1765 103.5,4.5C 109.921,8.21323 116.588,11.7132 123.5,15C 128.452,17.6297 132.785,20.9631 136.5,25C 150.243,33.1877 163.909,40.6877 177.5,47.5C 179.664,49.822 181.331,52.4887 182.5,55.5C 176.893,52.4471 171.726,48.7805 167,44.5C 151.903,36.0376 137.069,27.2043 122.5,18C 113.548,15.4046 105.215,11.4046 97.5,6C 93.1794,5.50098 88.8461,5.33432 84.5,5.5 Z"/></g>
<g><path style="opacity:1" fill="#bdbdbd" d="M 79.5,6.5 C 80.9187,5.54885 82.5853,5.21552 84.5,5.5C 88.8461,5.33432 93.1794,5.50098 97.5,6C 105.215,11.4046 113.548,15.4046 122.5,18C 137.069,27.2043 151.903,36.0376 167,44.5C 171.726,48.7805 176.893,52.4471 182.5,55.5C 183.674,56.5137 184.34,57.847 184.5,59.5C 183.25,59.4226 182.417,58.756 182,57.5C 181.692,58.3081 181.192,58.9747 180.5,59.5C 176.816,56.5047 172.816,53.838 168.5,51.5C 167.757,50.0921 166.923,48.7588 166,47.5C 165.309,49.8912 164.309,49.8912 163,47.5C 162.283,48.0442 161.783,48.7109 161.5,49.5C 155.45,43.4822 148.117,40.8155 139.5,41.5C 140.952,40.6981 142.618,40.1981 144.5,40C 126.073,28.5693 107.407,17.5693 88.5,7C 85.5184,6.50204 82.5184,6.33537 79.5,6.5 Z"/></g>
<g><path style="opacity:1" fill="#50504e" d="M 42.5,23.5 C 44.5412,23.8541 46.3745,23.8541 48,23.5C 51.8333,26 55.6667,28.5 59.5,31C 57.9419,31.21 56.6085,31.71 55.5,32.5C 50.3386,34.0001 46.3386,37.0001 43.5,41.5C 43.178,39.2776 43.8446,37.4443 45.5,36C 44.5509,35.3828 43.7175,35.5494 43,36.5C 42.1475,34.8753 41.1475,34.5419 40,35.5C 39.3333,34.1667 38.6667,32.8333 38,31.5C 37.6667,32.5 37.3333,33.5 37,34.5C 36.6121,33.572 35.9454,32.9054 35,32.5C 33.4487,34.894 31.282,36.2273 28.5,36.5C 32.539,31.46 37.2056,27.1266 42.5,23.5 Z"/></g>
<g><path style="opacity:1" fill="#828280" d="M 63.5,11.5 C 68.0322,11.5971 72.3655,12.5971 76.5,14.5C 92.7396,24.3543 109.073,34.021 125.5,43.5C 124.398,44.1757 123.398,44.8423 122.5,45.5C 119.43,45.3677 116.43,45.701 113.5,46.5C 114.048,45.3115 114.381,44.1448 114.5,43C 110.346,41.9656 106.346,40.6322 102.5,39C 89.2472,30.8237 76.0805,22.657 63,14.5C 61.2245,15.5361 59.3911,15.5361 57.5,14.5C 59.1815,12.9925 61.1815,11.9925 63.5,11.5 Z"/></g>
<g><path style="opacity:1" fill="#fbfbfa" d="M 55.5,32.5 C 62.8276,31.7152 68.8276,34.0486 73.5,39.5C 75.9695,43.095 76.9695,47.095 76.5,51.5C 75.6373,53.4214 74.9707,55.4214 74.5,57.5C 72.0967,60.907 69.0967,63.5737 65.5,65.5C 59.5317,67.2122 53.8651,66.5455 48.5,63.5C 48.5,62.8333 48.1667,62.5 47.5,62.5C 42.5016,56.3137 41.1682,49.3137 43.5,41.5C 46.3386,37.0001 50.3386,34.0001 55.5,32.5 Z"/></g>
<g><path style="opacity:1" fill="#656563" d="M 108.5,51.5 C 116.147,53.4887 123.48,56.322 130.5,60C 133.44,63.505 133.773,67.005 131.5,70.5C 131.586,69.5041 131.252,68.6708 130.5,68C 125.563,64.7249 120.396,61.8916 115,59.5C 102.693,52.1222 89.6928,44.4555 76,36.5C 74.9916,36.9817 73.825,37.1484 72.5,37C 73.2524,37.6708 73.5858,38.5041 73.5,39.5C 68.8276,34.0486 62.8276,31.7152 55.5,32.5C 56.6085,31.71 57.9419,31.21 59.5,31C 55.6667,28.5 51.8333,26 48,23.5C 46.3745,23.8541 44.5412,23.8541 42.5,23.5C 44.2228,21.7819 46.2228,20.4486 48.5,19.5C 50.905,19.1336 53.2383,18.4669 55.5,17.5C 73.0364,27.7672 90.7031,37.7672 108.5,47.5C 107.295,48.9948 107.295,50.3281 108.5,51.5 Z"/></g>
<g><path style="opacity:1" fill="#585856" d="M 131.5,70.5 C 130.421,72.543 128.754,73.8763 126.5,74.5C 126.082,73.7784 125.416,73.2784 124.5,73C 124.833,72.6667 125.167,72.3333 125.5,72C 119.72,69.9354 114.054,66.9354 108.5,63C 100.071,58.1187 91.404,53.7853 82.5,50C 80.8352,47.9267 79.3352,45.7601 78,43.5C 77.8171,46.3647 77.3171,49.0314 76.5,51.5C 76.9695,47.095 75.9695,43.095 73.5,39.5C 73.5858,38.5041 73.2524,37.6708 72.5,37C 73.825,37.1484 74.9916,36.9817 76,36.5C 89.6928,44.4555 102.693,52.1222 115,59.5C 120.396,61.8916 125.563,64.7249 130.5,68C 131.252,68.6708 131.586,69.5041 131.5,70.5 Z"/></g>
<g><path style="opacity:1" fill="#343432" d="M 43.5,41.5 C 41.1682,49.3137 42.5016,56.3137 47.5,62.5C 45.9826,62.4894 44.8159,61.8228 44,60.5C 43.6667,61.1667 43.3333,61.8333 43,62.5C 34.5155,61.2591 27.0155,57.5925 20.5,51.5C 19.0295,52.3805 18.1962,53.7139 18,55.5C 17.3292,56.2524 16.4959,56.5858 15.5,56.5C 18.8269,49.1797 23.1602,42.513 28.5,36.5C 31.282,36.2273 33.4487,34.894 35,32.5C 35.9454,32.9054 36.6121,33.572 37,34.5C 37.3333,33.5 37.6667,32.5 38,31.5C 38.6667,32.8333 39.3333,34.1667 40,35.5C 41.1475,34.5419 42.1475,34.8753 43,36.5C 43.7175,35.5494 44.5509,35.3828 45.5,36C 43.8446,37.4443 43.178,39.2776 43.5,41.5 Z"/></g>
<g><path style="opacity:1" fill="#4c4c4a" d="M 126.5,74.5 C 123.992,76.9236 120.992,78.5903 117.5,79.5C 117.225,77.1582 116.392,77.1582 115,79.5C 114.517,78.552 114.351,77.552 114.5,76.5C 102.67,69.997 90.8365,63.3303 79,56.5C 77.5707,56.4698 76.0707,56.8031 74.5,57.5C 74.9707,55.4214 75.6373,53.4214 76.5,51.5C 77.3171,49.0314 77.8171,46.3647 78,43.5C 79.3352,45.7601 80.8352,47.9267 82.5,50C 91.404,53.7853 100.071,58.1187 108.5,63C 114.054,66.9354 119.72,69.9354 125.5,72C 125.167,72.3333 124.833,72.6667 124.5,73C 125.416,73.2784 126.082,73.7784 126.5,74.5 Z"/></g>
<g><path style="opacity:1" fill="#2a2a28" d="M 47.5,62.5 C 48.1667,62.5 48.5,62.8333 48.5,63.5C 47.5477,65.1123 47.2144,66.6123 47.5,68C 48.4491,68.6172 49.2825,68.4506 50,67.5C 51.8524,69.2297 51.6857,70.3964 49.5,71C 51.5,71 53.5,71 55.5,71C 54.5419,72.1475 54.8753,73.1475 56.5,74C 59.3821,75.6079 62.3821,76.9413 65.5,78C 71.4728,81.9976 77.4728,85.9976 83.5,90C 85.4188,91.9338 86.9188,91.7671 88,89.5C 88.9234,90.7588 89.7568,92.0921 90.5,93.5C 91.086,93.2907 91.586,92.9574 92,92.5C 92.4935,94.1341 92.6602,95.8008 92.5,97.5C 89.0484,100.399 85.3817,103.066 81.5,105.5C 81.7394,103.533 81.4061,101.699 80.5,100C 60.5901,88.706 40.5901,77.3727 20.5,66C 18.8603,64.6054 17.3603,63.1054 16,61.5C 15.2079,63.6437 13.7079,64.977 11.5,65.5C 12.0749,62.0884 13.4082,59.0884 15.5,56.5C 16.4959,56.5858 17.3292,56.2524 18,55.5C 18.1962,53.7139 19.0295,52.3805 20.5,51.5C 27.0155,57.5925 34.5155,61.2591 43,62.5C 43.3333,61.8333 43.6667,61.1667 44,60.5C 44.8159,61.8228 45.9826,62.4894 47.5,62.5 Z"/></g>
<g><path style="opacity:1" fill="#40403e" d="M 117.5,79.5 C 113.777,82.5515 109.777,85.2181 105.5,87.5C 105.131,85.5588 104.464,83.7255 103.5,82C 97.8185,79.5567 92.4852,76.5567 87.5,73C 81.9155,70.9173 76.7488,68.084 72,64.5C 70.1575,66.8344 67.9909,67.1677 65.5,65.5C 69.0967,63.5737 72.0967,60.907 74.5,57.5C 76.0707,56.8031 77.5707,56.4698 79,56.5C 90.8365,63.3303 102.67,69.997 114.5,76.5C 114.351,77.552 114.517,78.552 115,79.5C 116.392,77.1582 117.225,77.1582 117.5,79.5 Z"/></g>
<g><path style="opacity:1" fill="#a7a7a5" d="M 184.5,59.5 C 187.572,65.4427 189.572,71.7761 190.5,78.5C 189.21,77.9423 188.377,76.9423 188,75.5C 187.667,75.8333 187.333,76.1667 187,76.5C 186.727,74.8988 186.227,73.3988 185.5,72C 180.428,69.7332 175.928,67.2332 172,64.5C 171.487,65.5266 170.987,66.5266 170.5,67.5C 168.065,61.2969 165.065,55.2969 161.5,49.5C 161.783,48.7109 162.283,48.0442 163,47.5C 164.309,49.8912 165.309,49.8912 166,47.5C 166.923,48.7588 167.757,50.0921 168.5,51.5C 172.816,53.838 176.816,56.5047 180.5,59.5C 181.192,58.9747 181.692,58.3081 182,57.5C 182.417,58.756 183.25,59.4226 184.5,59.5 Z"/></g>
<g><path style="opacity:1" fill="#242422" d="M 81.5,105.5 C 72.5354,111.655 63.2021,117.321 53.5,122.5C 55.0253,120.6 56.0253,118.767 56.5,117C 55.3774,115.956 54.0441,115.29 52.5,115C 51.87,113.108 50.87,111.441 49.5,110C 48.2575,109.689 47.2575,110.189 46.5,111.5C 44.5483,109.259 42.3816,107.259 40,105.5C 39.6667,106.5 39.3333,107.5 39,108.5C 36.8333,107.667 35.3333,106.167 34.5,104C 25.1401,99.3675 16.1401,94.2008 7.5,88.5C 6.50408,94.4632 6.17075,100.463 6.5,106.5C 4.09872,92.3527 5.76539,78.686 11.5,65.5C 13.7079,64.977 15.2079,63.6437 16,61.5C 17.3603,63.1054 18.8603,64.6054 20.5,66C 40.5901,77.3727 60.5901,88.706 80.5,100C 81.4061,101.699 81.7394,103.533 81.5,105.5 Z"/></g>
<g><path style="opacity:1" fill="#323231" d="M 48.5,63.5 C 53.8651,66.5455 59.5317,67.2122 65.5,65.5C 67.9909,67.1677 70.1575,66.8344 72,64.5C 76.7488,68.084 81.9155,70.9173 87.5,73C 92.4852,76.5567 97.8185,79.5567 103.5,82C 104.464,83.7255 105.131,85.5588 105.5,87.5C 101.386,91.0642 97.0524,94.3975 92.5,97.5C 92.6602,95.8008 92.4935,94.1341 92,92.5C 91.586,92.9574 91.086,93.2907 90.5,93.5C 89.7568,92.0921 88.9234,90.7588 88,89.5C 86.9188,91.7671 85.4188,91.9338 83.5,90C 77.4728,85.9976 71.4728,81.9976 65.5,78C 62.3821,76.9413 59.3821,75.6079 56.5,74C 54.8753,73.1475 54.5419,72.1475 55.5,71C 53.5,71 51.5,71 49.5,71C 51.6857,70.3964 51.8524,69.2297 50,67.5C 49.2825,68.4506 48.4491,68.6172 47.5,68C 47.2144,66.6123 47.5477,65.1123 48.5,63.5 Z"/></g>
<g><path style="opacity:1" fill="#878785" d="M 190.5,78.5 C 191.981,83.0117 192.648,87.6784 192.5,92.5C 191.539,90.7354 191.205,88.7354 191.5,86.5C 190.07,86.4208 188.736,86.7542 187.5,87.5C 185.252,84.984 182.919,82.484 180.5,80C 177.353,79.0536 174.353,77.8869 171.5,76.5C 171.598,78.5529 170.931,80.2196 169.5,81.5C 170.229,76.8696 170.563,72.2029 170.5,67.5C 170.987,66.5266 171.487,65.5266 172,64.5C 175.928,67.2332 180.428,69.7332 185.5,72C 186.227,73.3988 186.727,74.8988 187,76.5C 187.333,76.1667 187.667,75.8333 188,75.5C 188.377,76.9423 189.21,77.9423 190.5,78.5 Z"/></g>
<g><path style="opacity:1" fill="#696967" d="M 192.5,92.5 C 192.821,98.0262 192.488,103.36 191.5,108.5C 191.799,106.396 191.466,104.396 190.5,102.5C 183.122,98.6108 176.622,94.9441 171,91.5C 170.809,93.7078 170.309,95.7078 169.5,97.5C 169.5,92.1667 169.5,86.8333 169.5,81.5C 170.931,80.2196 171.598,78.5529 171.5,76.5C 174.353,77.8869 177.353,79.0536 180.5,80C 182.919,82.484 185.252,84.984 187.5,87.5C 188.736,86.7542 190.07,86.4208 191.5,86.5C 191.205,88.7354 191.539,90.7354 192.5,92.5 Z"/></g>
<g><path style="opacity:1" fill="#1e1e1c" d="M 53.5,122.5 C 41.3917,128.971 29.225,135.304 17,141.5C 12.6548,134.817 9.65482,127.484 8,119.5C 7.07746,115.21 6.57746,110.877 6.5,106.5C 6.17075,100.463 6.50408,94.4632 7.5,88.5C 16.1401,94.2008 25.1401,99.3675 34.5,104C 35.3333,106.167 36.8333,107.667 39,108.5C 39.3333,107.5 39.6667,106.5 40,105.5C 42.3816,107.259 44.5483,109.259 46.5,111.5C 47.2575,110.189 48.2575,109.689 49.5,110C 50.87,111.441 51.87,113.108 52.5,115C 54.0441,115.29 55.3774,115.956 56.5,117C 56.0253,118.767 55.0253,120.6 53.5,122.5 Z"/></g>
<g><path style="opacity:1" fill="#50504e" d="M 191.5,108.5 C 191.884,112.489 191.217,116.155 189.5,119.5C 186.644,119.03 183.644,117.864 180.5,116C 178.049,114.033 175.382,112.367 172.5,111C 171.031,107.07 169.864,106.903 169,110.5C 168.329,111.252 167.496,111.586 166.5,111.5C 168.431,107.102 169.431,102.435 169.5,97.5C 170.309,95.7078 170.809,93.7078 171,91.5C 176.622,94.9441 183.122,98.6108 190.5,102.5C 191.466,104.396 191.799,106.396 191.5,108.5 Z"/></g>
<g><path style="opacity:1" fill="#3a3a38" d="M 189.5,119.5 C 188.148,128.19 185.148,136.19 180.5,143.5C 180.297,141.956 179.63,140.622 178.5,139.5C 181.619,138.306 181.952,136.806 179.5,135C 173.86,132.939 169.026,129.772 165,125.5C 163.84,127.797 162.84,127.464 162,124.5C 161.29,125.973 160.124,126.64 158.5,126.5C 160.916,121.333 163.582,116.333 166.5,111.5C 167.496,111.586 168.329,111.252 169,110.5C 169.864,106.903 171.031,107.07 172.5,111C 175.382,112.367 178.049,114.033 180.5,116C 183.644,117.864 186.644,119.03 189.5,119.5 Z"/></g>
<g><path style="opacity:1" fill="#2d2d2b" d="M 180.5,143.5 C 177.727,150.052 173.727,155.719 168.5,160.5C 168.329,158.007 169.329,156.174 171.5,155C 170.833,154.667 170.167,154.333 169.5,154C 170.833,153 170.833,152 169.5,151C 163.125,148.438 157.125,145.271 151.5,141.5C 149.997,142.052 148.331,142.052 146.5,141.5C 150.53,136.476 154.53,131.476 158.5,126.5C 160.124,126.64 161.29,125.973 162,124.5C 162.84,127.464 163.84,127.797 165,125.5C 169.026,129.772 173.86,132.939 179.5,135C 181.952,136.806 181.619,138.306 178.5,139.5C 179.63,140.622 180.297,141.956 180.5,143.5 Z"/></g>
<g><path style="opacity:1" fill="#232321" d="M 146.5,141.5 C 148.331,142.052 149.997,142.052 151.5,141.5C 157.125,145.271 163.125,148.438 169.5,151C 170.833,152 170.833,153 169.5,154C 170.167,154.333 170.833,154.667 171.5,155C 169.329,156.174 168.329,158.007 168.5,160.5C 163.96,166.207 158.627,171.04 152.5,175C 145.725,175.452 139.059,176.119 132.5,177C 124.732,171.675 122.398,164.508 125.5,155.5C 133.737,152.558 140.737,147.891 146.5,141.5 Z"/></g>
<g><path style="opacity:1" fill="#1f1f1e" d="M 79.5,151.5 C 86.2771,150.809 92.6105,152.143 98.5,155.5C 99.3295,160.802 99.8295,166.136 100,171.5C 103.204,174.369 106.037,177.535 108.5,181C 100.274,181.778 92.9408,184.778 86.5,190C 65.4581,188.479 47.7914,179.979 33.5,164.5C 46.2603,156.079 60.2603,152.246 75.5,153C 77.0581,152.79 78.3915,152.29 79.5,151.5 Z"/></g>
<g><path style="opacity:1" fill="#282828" d="M 112.5,160.5 C 114.177,163.092 115.343,166.092 116,169.5C 119.016,172.349 121.85,175.349 124.5,178.5C 121.291,179.787 118.125,179.787 115,178.5C 113,175.833 111,173.167 109,170.5C 108.502,167.518 108.335,164.518 108.5,161.5C 110.099,161.768 111.432,161.434 112.5,160.5 Z"/></g>
</svg>
